<?xml version="1.0" encoding="utf-8" ?>
<svg xmlns="http://www.w3.org/2000/svg" xmlns:xlink="http://www.w3.org/1999/xlink" width="807" height="402">
	<path fill="#AFA7A6" d="M420.808 341.892C422.468 341.685 424.219 341.746 425.894 341.703C427.359 343.824 427.277 374.584 426.564 378.842C426.388 379.896 426.152 379.911 425.272 380.521L420.567 380.679C422.012 376.879 422.344 345.831 420.808 341.892Z"/>
	<path fill="#AFA7A6" d="M638.958 341.897L643.293 341.631C644.701 345.522 645.219 374.991 643.86 379.232C643.575 380.12 643.23 380.13 642.437 380.548L637.967 380.626C640.114 374.931 638.022 343.232 638.958 341.897Z"/>
	<path fill="#AFA7A6" d="M702.799 341.897C704.504 341.599 706.632 341.403 708.303 341.906C709.454 343.932 709.086 348.774 709.139 351.164C709.233 355.347 709.963 378.14 708.063 380.127C706.704 380.977 704.158 380.684 702.583 380.705C702.622 380.627 702.663 380.55 702.698 380.471C703.963 377.654 703.968 344.771 702.799 341.897Z"/>
	<path fill="#AFA7A6" d="M451.173 341.896C452.745 341.677 454.407 341.719 455.995 341.662C456.155 341.855 456.28 342.012 456.381 342.243C458.397 346.837 457.654 370.399 455.722 375.096C454.686 377.616 452.891 379.755 450.317 380.77C446.238 382.38 442.067 380.901 438.296 379.224C437.419 377.971 435.072 375.188 434.94 373.779C434.89 373.247 435.153 373.093 435.459 372.69C436.743 372.194 438.116 372.088 439.472 371.919C441.126 372.842 441.921 374.803 443.588 375.642C444.694 376.198 446.008 376.364 447.195 375.974C448.589 375.515 449.561 374.332 450.212 373.069C452.718 368.21 452.877 347.02 451.173 341.896Z"/>
	<path fill="#AFA7A6" d="M296.303 341.664C298.025 341.735 299.751 341.642 301.473 341.582C301.679 352.777 301.475 364.011 301.464 375.21L319.503 375.273L319.491 380.706C311.806 380.24 304.005 380.765 296.293 380.489Q296.168 361.077 296.303 341.664Z"/>
	<path fill="#AFA7A6" d="M606.759 341.897C608.525 341.62 610.118 341.639 611.898 341.75C612.225 342.257 612.44 342.737 612.552 343.334C613.338 347.5 613.902 372.631 612.191 375.256C615.927 375.284 626.709 374.191 629.659 375.756C630.435 376.168 630.421 376.441 630.696 377.234C630.492 378.332 630.31 378.889 629.527 379.733L629.386 380.145C627.885 381.376 609.535 380.67 606.567 380.663C606.687 380.461 606.717 380.42 606.828 380.183C608.423 376.757 608.288 345.835 606.759 341.897Z"/>
	<path fill="#AFA7A6" d="M210.217 341.496C219.555 340.493 230.031 341.161 239.422 341.686L239.454 347.097Q233.26 347.106 227.066 347L226.986 369.875L226.995 380.812L221.487 380.787L221.391 347.132C217.251 346.957 213.109 347.048 208.968 347.103C208.941 345.382 208.816 343.638 209.32 341.972L210.217 341.496Z"/>
	<path fill="#AFA7A6" d="M524.222 341.108C528.345 340.598 534.563 340.731 538.049 343.351C538.891 343.983 538.991 344.418 539.167 345.39C538.518 347.208 536.706 348.15 535.108 349.045C534.934 348.776 534.975 348.805 534.755 348.59C533.159 347.022 530.149 345.959 527.926 346.03C525.679 346.101 523.778 347.425 522.341 349.056C521.441 350.076 520.873 350.942 520.997 352.369C521.323 356.128 534.153 359.9 537.152 362.413C538.948 363.919 540.215 365.916 540.405 368.288C540.651 371.357 539.07 375.058 537.052 377.32C534.363 380.334 530.581 381.055 526.737 381.247C521.292 381.096 517.856 378.491 513.121 376.407C514.59 375.646 516.687 373.881 517.49 372.429C519.223 372.817 520.63 373.889 522.17 374.727C524.174 375.818 526.111 376.507 528.372 375.787C530.293 375.175 533.698 373.085 534.537 371.207C536.643 366.491 523.889 363.122 521.095 361.466C518.925 360.179 516.971 358.328 515.925 356C514.79 353.473 515.001 350.472 515.984 347.925C517.4 344.257 520.877 342.62 524.222 341.108Z"/>
	<path fill="#AFA7A6" d="M574.045 358.022C574.243 357.916 574.434 357.803 574.63 357.695C581.685 353.799 585.409 344.487 593.302 342.13C594.97 341.631 596.934 341.572 598.668 341.407C598.631 341.775 598.569 342.155 598.405 342.491C597.086 345.186 582.795 358.13 579.798 359.283C579.87 359.319 579.944 359.353 580.015 359.392C582.436 360.685 592.147 370.35 592.808 372.659C593.041 372.791 593.078 372.805 593.329 372.985C595.672 374.667 599.56 377.782 599.919 380.713L592.146 380.56C592.105 380.344 592.054 380.113 591.968 379.91C590.607 376.722 577.182 363.046 574.05 361.709C574.077 361.769 574.106 361.828 574.131 361.889C574.172 361.991 574.208 362.094 574.248 362.195C574.355 362.461 574.465 362.723 574.548 362.998C575.49 366.11 575.089 378.196 573.669 380.951L568.155 380.782C568.279 380.608 568.37 380.501 568.457 380.314C569.682 377.671 569.589 345.003 568.423 341.897C570.146 341.606 571.972 341.68 573.718 341.649C573.94 341.974 574.102 342.296 574.23 342.67C575.278 345.74 575.548 355.111 574.045 358.022Z"/>
	<path fill="#AFA7A6" d="M746.87 341.503C748.485 341.532 750.079 341.407 751.688 341.284C751.616 341.571 751.524 341.855 751.419 342.133C750.068 345.697 736.122 358.045 732.795 359.451C733.661 359.965 734.431 360.48 735.176 361.161C738.335 364.052 752.19 377.684 752.328 380.591Q748.642 380.627 744.956 380.618C744.948 380.401 744.961 380.324 744.867 380.096C743.548 376.89 730.267 363.672 727.175 361.901L726.862 362.083C728.172 365.742 728.357 377.245 726.79 380.586C724.885 380.449 722.792 380.641 720.873 380.675C723.422 376.414 721.451 349.33 722.098 342.346C722.474 341.752 723.26 341.212 723.931 340.984C724.615 340.751 725.218 340.982 725.795 341.347C726.855 342.018 727.399 343.426 727.667 344.597C728.295 347.343 728.331 355.308 726.811 357.609C726.769 357.673 726.72 357.734 726.675 357.797C733.71 355.047 740.577 342.36 746.87 341.503Z"/>
	<path fill="#AFA7A6" d="M392.589 341.073C396.545 341.013 401.939 341.098 405.394 343.235C406.414 343.866 407.357 344.734 407.654 345.928C407.2 347.614 405.244 348.811 403.905 349.755C403.317 348.802 401.815 347.972 400.812 347.518C397.156 345.864 391.488 345.869 387.799 347.326C384.594 348.591 382.193 351.102 380.884 354.273C379.257 358.218 379.162 362.857 380.808 366.81C382.413 370.663 385.514 373.934 389.43 375.457C393.738 377.131 398.697 376.252 402.842 374.458C403.055 374.131 403.241 373.782 403.324 373.398C403.868 370.881 403.977 366.081 402.643 363.791C400.668 363.718 397.207 364.465 395.501 363.45C394.715 362.982 394.756 362.204 394.578 361.379C394.672 360.506 394.861 359.695 395.086 358.85C398.995 358.083 403.698 358.604 407.684 358.767C407.949 359.055 408.184 359.366 408.335 359.731C409.601 362.799 409.435 375.462 408.036 378.282C406.132 380.058 400.729 380.69 398.217 380.997C392.093 381.744 386.05 380.958 381.075 376.981C376.749 373.523 374.154 368.516 373.635 363.02C373.135 357.735 374.465 351.745 377.937 347.654C381.619 343.315 387.096 341.467 392.589 341.073Z"/>
	<path fill="#AFA7A6" d="M772.188 341.897C773.974 341.654 775.668 341.259 777.246 342.356C779.769 346.277 793.421 377.041 792.901 380.188C790.827 380.475 788.687 380.528 786.596 380.67C786.706 380.298 786.8 379.961 786.821 379.571C786.933 377.496 784.641 372.565 783.219 371.102C780.498 370.929 777.713 371.031 774.984 371.018Q769.82 371.056 764.657 370.928C764.789 371.281 764.865 371.541 764.839 371.924C764.649 374.726 762.991 378.712 760.81 380.553L754.316 380.684C758.273 377.689 768.513 348.561 772.188 341.897ZM773.676 350.173C773.821 353.598 769.107 363.47 767.087 366.194C767.043 366.254 766.996 366.312 766.951 366.37C769.242 366.247 771.507 366.17 773.802 366.216L780.577 366.251C781.243 363.577 777.125 354.327 775.611 351.789Q775.19 351.085 774.715 350.416L773.676 350.173Z"/>
	<path fill="#AFA7A6" d="M167.031 341.638L174.064 341.741L186.589 360.457C189.464 364.699 192.647 368.876 195.066 373.39L195.037 341.726L200.608 341.732L200.552 380.669L193.752 380.554C187.145 369.91 179.525 359.705 172.495 349.323Q172.338 364.981 172.539 380.638L167.034 380.661C166.893 367.705 166.517 354.58 167.031 341.638Z"/>
	<path fill="#AFA7A6" d="M656.795 341.897C658.966 341.53 661.011 341.642 663.195 341.762C664.14 342.252 664.794 342.958 665.448 343.779C668.625 347.768 684.709 370.446 684.349 373.644C684.632 373.04 684.935 372.374 685.045 371.712C685.646 368.101 685.792 344.061 684.185 341.623L689.698 341.666C690.007 342.1 690.26 342.52 690.422 343.032C691.662 346.94 691.483 377.783 690.097 380.521C688.31 381.114 685.052 380.684 683.096 380.664C683.134 380.312 683.151 380.155 683.075 379.822C682.391 376.805 666.606 354.172 663.587 350.712C663.06 350.109 662.392 349.638 661.72 349.212C662.044 349.728 662.381 350.269 662.571 350.851C663.743 354.428 663.643 377.917 662.14 380.69L656.556 380.623C656.595 380.522 656.636 380.422 656.674 380.32C658.004 376.742 658.15 344.911 656.795 341.897Z"/>
	<path fill="#AFA7A6" d="M78.8508 341.536C82.6143 341.08 86.6513 341.19 90.3991 341.753C96.1253 342.614 101.438 344.865 104.941 349.704C107.921 353.819 108.896 359.103 108.07 364.076C107.13 369.731 103.864 373.872 99.3156 377.118C91.3292 381.104 82.9266 380.653 74.2299 380.606C74.0589 367.648 74.2559 354.636 74.2294 341.671C75.7658 341.713 77.315 341.603 78.8508 341.536ZM79.905 347.104C79.9575 356.387 80.2916 365.834 79.8668 375.101C86.7744 374.99 92.4023 375.063 98.1575 370.569C100.933 367.078 102.776 363.481 102.241 358.86C101.848 355.469 100.179 352.34 97.4546 350.264C92.5025 346.49 85.7741 347.026 79.905 347.104Z"/>
	<path fill="#AFA7A6" d="M263.061 341.043C267.677 340.837 272.016 341.023 276.112 343.485C280.651 346.213 283.862 350.963 285.074 356.082C286.376 361.581 285.325 367.706 282.32 372.493C279.107 377.614 274.729 379.826 269.042 381.091C263.402 381.578 258.077 380.861 253.357 377.427C249.019 374.271 246.419 369.489 245.681 364.214C244.911 358.721 246.046 352.623 249.493 348.2C252.884 343.849 257.73 341.753 263.061 341.043ZM263.95 346.138C259.711 347.003 256.309 348.765 253.853 352.481C251.529 355.995 250.866 360.485 251.769 364.575C252.627 368.46 254.868 372.077 258.293 374.19C261.311 376.052 264.308 376.189 267.733 376.032C272.101 374.794 275.678 372.509 277.974 368.471C280.031 364.854 280.392 360.475 279.21 356.507Q279.009 355.821 278.741 355.159Q278.472 354.497 278.138 353.866Q277.804 353.234 277.408 352.64Q277.012 352.045 276.559 351.493Q276.105 350.942 275.598 350.438Q275.091 349.935 274.536 349.486Q273.981 349.036 273.383 348.645Q272.786 348.253 272.152 347.924C269.488 346.546 266.876 346.351 263.95 346.138Z"/>
	<path fill="#AFA7A6" d="M133.21 341.002C138.21 340.523 142.859 340.891 147.25 343.617C151.774 346.425 154.753 350.91 155.984 356.045Q156.11 356.55 156.21 357.062Q156.311 357.573 156.386 358.088Q156.461 358.604 156.51 359.122Q156.559 359.641 156.583 360.161Q156.606 360.681 156.603 361.202Q156.601 361.723 156.572 362.243Q156.544 362.763 156.489 363.281Q156.435 363.799 156.355 364.314Q156.275 364.829 156.169 365.339Q156.064 365.849 155.933 366.353Q155.802 366.857 155.646 367.354Q155.49 367.851 155.31 368.34Q155.13 368.828 154.925 369.307Q154.721 369.786 154.493 370.255Q154.265 370.723 154.014 371.179Q153.762 371.636 153.489 372.079C150.212 377.315 145.548 379.658 139.752 381.04C134.634 381.678 129.588 380.821 125.218 377.965C120.678 374.998 117.674 370.278 116.62 364.985Q116.515 364.479 116.436 363.969Q116.357 363.459 116.303 362.945Q116.249 362.431 116.221 361.916Q116.193 361.4 116.191 360.884Q116.188 360.367 116.212 359.851Q116.235 359.335 116.284 358.821Q116.334 358.307 116.408 357.796Q116.483 357.285 116.583 356.779Q116.683 356.272 116.808 355.771Q116.934 355.27 117.084 354.776Q117.234 354.282 117.408 353.796Q117.583 353.31 117.781 352.833Q117.98 352.356 118.202 351.89Q118.424 351.424 118.669 350.969Q118.914 350.514 119.181 350.073Q119.449 349.631 119.738 349.203C122.937 344.505 127.776 342.055 133.21 341.002ZM133.312 346.506C128.971 348.106 125.471 350.223 123.488 354.637C121.763 358.477 121.724 363.245 123.29 367.142Q123.556 367.795 123.884 368.42Q124.213 369.045 124.6 369.634Q124.987 370.224 125.43 370.773Q125.872 371.323 126.366 371.827Q126.86 372.331 127.401 372.784Q127.941 373.238 128.523 373.637Q129.105 374.036 129.722 374.376Q130.34 374.717 130.988 374.996C133.595 376.103 136.638 376.334 139.439 375.981C143.822 374.374 147.346 371.877 149.345 367.497Q149.661 366.796 149.905 366.066Q150.149 365.337 150.319 364.587Q150.49 363.837 150.585 363.074Q150.68 362.311 150.698 361.542Q150.717 360.773 150.659 360.006Q150.6 359.239 150.466 358.482Q150.332 357.724 150.123 356.984Q149.914 356.244 149.633 355.528Q149.375 354.855 149.051 354.211Q148.728 353.567 148.342 352.959Q147.956 352.35 147.512 351.783Q147.068 351.215 146.57 350.695Q146.072 350.174 145.524 349.706Q144.977 349.237 144.386 348.825Q143.795 348.413 143.166 348.062Q142.537 347.71 141.876 347.423C139.021 346.202 136.351 346.257 133.312 346.506Z"/>
	<path fill="#AFA7A6" d="M482.388 341.108C488.366 340.698 493.63 340.821 498.688 344.548C503.015 347.736 506.124 352.777 506.838 358.118C507.557 363.498 506.209 369.593 502.861 373.897C499.791 377.843 495.19 380.194 490.273 380.775C490.067 380.897 490.026 380.936 489.76 381.008C486.068 382.007 481.069 381.041 477.764 379.41C472.885 377.003 469.141 372.328 467.505 367.175Q467.351 366.681 467.221 366.18Q467.092 365.679 466.988 365.173Q466.884 364.666 466.805 364.155Q466.726 363.643 466.673 363.129Q466.62 362.614 466.592 362.098Q466.565 361.581 466.563 361.064Q466.561 360.547 466.585 360.03Q466.609 359.513 466.659 358.998Q466.709 358.483 466.784 357.971Q466.86 357.46 466.96 356.952Q467.061 356.445 467.187 355.943Q467.313 355.441 467.464 354.947Q467.615 354.452 467.79 353.965Q467.966 353.478 468.165 353.001Q468.364 352.524 468.587 352.057Q468.81 351.59 469.056 351.135C472.028 345.57 476.582 342.913 482.388 341.108ZM484.132 346.231C479.63 347.892 476.048 350.13 473.998 354.686Q473.678 355.408 473.432 356.158Q473.185 356.908 473.014 357.679Q472.843 358.449 472.749 359.233Q472.655 360.017 472.639 360.806Q472.623 361.596 472.685 362.383Q472.747 363.17 472.887 363.947Q473.027 364.724 473.243 365.483Q473.459 366.243 473.749 366.977C475.117 370.434 477.785 373.735 481.276 375.198C483.468 376.116 486.302 376.469 488.605 375.792C492.503 375.183 495.821 373.471 498.174 370.23Q498.615 369.614 498.994 368.958Q499.373 368.303 499.685 367.613Q499.998 366.923 500.241 366.205Q500.484 365.488 500.656 364.75Q500.827 364.012 500.926 363.261Q501.024 362.51 501.048 361.753Q501.072 360.996 501.021 360.24Q500.971 359.484 500.846 358.737C500.208 354.768 498.131 351.102 494.828 348.762C491.774 346.6 487.825 345.781 484.132 346.231Z"/>
	<path fill="#AFA7A6" d="M342.545 341.022C347.543 340.757 352.37 341.161 356.712 343.927C361.091 346.715 364.007 351.414 365.056 356.452C366.177 361.836 365.396 367.839 362.308 372.46C359.07 377.307 353.999 379.985 348.421 381.079C343.054 381.703 337.692 380.756 333.231 377.56C329.063 374.574 326.325 369.846 325.496 364.812C324.609 359.432 325.736 353.258 328.962 348.813C332.276 344.247 337.096 341.881 342.545 341.022ZM342.428 346.504C338.218 347.84 334.959 349.629 332.798 353.709C330.796 357.487 330.487 362.092 331.783 366.147Q331.988 366.805 332.256 367.44Q332.524 368.075 332.852 368.681Q333.181 369.286 333.568 369.857Q333.954 370.427 334.395 370.957Q334.835 371.487 335.325 371.972Q335.816 372.456 336.351 372.89Q336.886 373.324 337.461 373.704Q338.036 374.083 338.646 374.405C341.705 375.988 345.17 376.203 348.525 375.677C352.62 374.26 355.957 371.86 357.922 367.889C359.773 364.15 359.915 359.589 358.552 355.669C357.35 352.214 354.91 349.215 351.567 347.652C348.642 346.284 345.594 346.147 342.428 346.504Z"/>
	<path fill="#AFA7A6" d="M42.3767 341.042C47.6317 340.586 52.7385 341.422 57.0344 344.673Q57.7942 345.255 58.4936 345.908Q59.1929 346.561 59.8253 347.279Q60.4576 347.998 61.0169 348.774Q61.5762 349.551 62.057 350.378Q62.5379 351.206 62.9357 352.076Q63.3335 352.946 63.6446 353.851Q63.9556 354.757 64.1769 355.688Q64.3982 356.619 64.5276 357.567C65.3238 363.227 64.0994 369.3 60.5845 373.877C57.049 378.48 52.201 380.6 46.603 381.375C41.9469 381.77 36.8225 380.646 33.0113 377.92Q32.5994 377.623 32.2028 377.307Q31.8062 376.99 31.4258 376.654Q31.0455 376.318 30.6824 375.963Q30.3194 375.608 29.9744 375.236Q29.6295 374.864 29.3035 374.475Q28.9776 374.085 28.6715 373.681Q28.3654 373.276 28.0798 372.856Q27.7943 372.436 27.53 372.003Q27.2658 371.57 27.0235 371.124Q26.7811 370.677 26.5614 370.22Q26.3416 369.762 26.145 369.294Q25.9483 368.826 25.7752 368.349Q25.6021 367.872 25.4531 367.387Q25.304 366.902 25.1793 366.409Q25.0547 365.917 24.9547 365.42Q24.8547 364.922 24.7797 364.42C23.9527 359.014 25.1124 352.854 28.4233 348.431C31.9195 343.76 36.7946 341.82 42.3767 341.042ZM41.0137 346.533C36.9614 347.993 33.9074 350.425 32.0468 354.388C30.2567 358.201 29.9145 362.764 31.4349 366.722C32.8396 370.379 35.7824 373.568 39.4125 375.083C41.8241 376.09 44.8529 376.466 47.4241 375.918C52.1339 373.79 55.745 371.815 57.7348 366.684C59.2303 362.828 59.172 358.094 57.4422 354.32Q57.1589 353.707 56.816 353.125Q56.4732 352.542 56.0744 351.997Q55.6755 351.452 55.2245 350.949Q54.7735 350.446 54.2748 349.99Q53.7761 349.535 53.2347 349.131Q52.6933 348.727 52.1144 348.378Q51.5356 348.03 50.925 347.741Q50.3145 347.452 49.6783 347.225C46.7171 346.15 44.0747 346.219 41.0137 346.533Z"/>
	<path fill="#AFA7A6" d="M470.414 26.2086C476.596 25.6408 483.031 26.0587 489.233 26.1615C490.449 33.891 489.145 45.4646 488.806 53.5488C488.503 60.773 488.586 68.0398 488.574 75.2696L488.42 219.326C488.446 232.217 488.245 245.265 488.684 258.138C488.935 265.486 490.674 273.877 489.621 281.096C488.732 281.791 488.036 281.633 486.938 281.682C480.966 282.246 474.509 281.756 468.495 281.717C469.723 279.895 469.931 278.157 470.113 276.014C470.623 269.986 470.461 263.847 470.669 257.794C471.466 234.529 471.147 211.249 471.126 187.973Q471.477 124.335 471.097 60.6976C470.997 52.8796 470.916 45.0417 470.338 37.2422C470.12 34.3013 468.783 29.1209 469.037 26.5774L470.414 26.2086Z"/>
	<path fill="#AFA7A6" d="M21.0783 26.1937C27.0121 25.7362 33.0063 26.1753 38.9479 26.2407C37.6832 109.685 39.5661 193.189 38.7112 276.639C55.8342 276.137 72.9748 277.771 90.0995 276.165C93.5335 275.843 104.118 273.492 106.87 274.922C107.347 275.17 107.345 275.441 107.52 275.919C107.294 276.905 106.928 277.399 106.242 278.13C102.834 280.026 99.1501 281.056 95.2884 281.525C87.4774 282.473 78.8064 281.767 70.9249 281.771L21.026 281.817Q21.502 189.963 20.8268 98.1106L20.3897 46.0303C20.3782 39.9619 19.594 32.4897 20.5028 26.607L21.0783 26.1937Z"/>
	<path fill="#AFA7A6" d="M357.677 22.6319C361.144 22.014 365.333 22.5629 368.843 22.7405C390.507 23.8365 413.213 29.8875 431.62 41.5915C436.483 44.6833 454.651 56.5249 455.746 61.4714C455.724 61.742 455.675 61.9884 455.564 62.2387C454.468 64.7137 449.032 69.2535 446.584 70.2796C444.646 66.2338 437.741 59.9082 434.346 56.7791Q433.362 55.8621 432.356 54.97Q431.349 54.0779 430.321 53.2113Q429.292 52.3448 428.243 51.5043Q427.193 50.6638 426.122 49.8499Q425.052 49.036 423.961 48.2492Q422.87 47.4625 421.76 46.7033Q420.65 45.9441 419.521 45.213Q418.393 44.4819 417.246 43.7794Q416.099 43.0768 414.935 42.4032Q413.771 41.7296 412.591 41.0855Q411.41 40.4413 410.214 39.827Q409.018 39.2126 407.806 38.6284Q406.595 38.0443 405.369 37.4907Q404.144 36.9371 402.905 36.4144Q401.666 35.8917 400.414 35.4003Q399.162 34.9088 397.899 34.4489Q396.635 33.9891 395.36 33.561Q394.085 33.133 392.8 32.737Q391.515 32.3411 390.22 31.9775Q388.925 31.6139 387.622 31.2829Q386.319 30.9519 385.007 30.6537Q383.696 30.3555 382.378 30.0903Q381.059 29.8251 379.735 29.593Q378.41 29.361 377.08 29.1622Q375.75 28.9634 374.416 28.7981Q373.081 28.6327 371.743 28.5009Q370.404 28.3691 369.063 28.2709Q367.722 28.1726 366.379 28.1081Q365.036 28.0435 363.691 28.0127Q362.347 27.9819 361.002 27.9848Q359.657 27.9876 358.313 28.0243Q356.969 28.0609 355.626 28.1312C327.544 29.3226 300.45 40.8726 281.319 61.7755C257.512 87.7873 247.061 126.264 248.605 161.052C250.034 193.221 262.89 229.245 287.082 251.315C306.636 269.153 330.618 279.022 357.135 279.71C362.688 279.855 368.334 279.248 373.886 278.988C395.542 275.938 416.897 268.115 434.763 255.335C439.881 251.674 444.763 245.562 450.703 243.299C451.884 242.849 452.894 242.585 454.102 243.115C454.732 243.752 454.822 244.225 454.909 245.076C454.998 245.939 454.61 246.524 454.066 247.166C451.101 250.665 447.173 253.727 443.609 256.614Q441.77 258.099 439.878 259.515Q437.985 260.931 436.042 262.276Q434.098 263.62 432.106 264.892Q430.113 266.164 428.075 267.36Q426.037 268.557 423.956 269.677Q421.875 270.798 419.754 271.84Q417.633 272.882 415.474 273.845Q413.316 274.808 411.123 275.69Q408.93 276.572 406.707 277.371Q404.483 278.171 402.231 278.888Q399.978 279.605 397.701 280.238Q395.424 280.871 393.125 281.418Q390.826 281.966 388.508 282.428Q386.191 282.89 383.857 283.266Q381.524 283.642 379.178 283.931Q376.833 284.219 374.478 284.421C338.724 287.409 304.298 278.18 276.682 254.774Q275.438 253.72 274.221 252.635Q273.004 251.551 271.814 250.437Q270.624 249.322 269.462 248.179Q268.3 247.036 267.166 245.864Q266.033 244.692 264.928 243.493Q263.824 242.293 262.75 241.067Q261.675 239.841 260.632 238.588Q259.588 237.336 258.576 236.058Q257.563 234.78 256.583 233.478Q255.602 232.175 254.654 230.849Q253.706 229.523 252.791 228.173Q251.876 226.824 250.994 225.453Q250.113 224.081 249.265 222.688Q248.418 221.295 247.605 219.882Q246.793 218.468 246.015 217.035Q245.238 215.602 244.496 214.15Q243.754 212.699 243.048 211.229Q242.343 209.759 241.673 208.273Q241.004 206.786 240.372 205.283Q239.74 203.78 239.145 202.262Q238.55 200.744 237.992 199.212Q237.435 197.68 236.916 196.134Q236.396 194.589 235.915 193.031Q235.434 191.473 234.992 189.904Q234.549 188.335 234.146 186.755Q233.743 185.175 233.378 183.586Q233.014 181.997 232.689 180.399Q232.364 178.802 232.079 177.196Q231.793 175.591 231.547 173.979Q231.302 172.367 231.096 170.75Q230.89 169.133 230.724 167.511Q230.559 165.889 230.433 164.263Q230.289 162.681 230.184 161.095Q230.079 159.51 230.014 157.922Q229.948 156.335 229.922 154.746Q229.896 153.157 229.909 151.568Q229.922 149.979 229.975 148.391Q230.027 146.803 230.119 145.217Q230.211 143.631 230.342 142.047Q230.473 140.464 230.643 138.884Q230.813 137.304 231.022 135.729Q231.232 134.154 231.48 132.585Q231.728 131.015 232.015 129.453Q232.302 127.89 232.627 126.335Q232.953 124.779 233.317 123.233Q233.681 121.686 234.083 120.149Q234.485 118.612 234.925 117.085Q235.365 115.558 235.843 114.043Q236.32 112.527 236.835 111.024Q237.35 109.521 237.902 108.031Q238.454 106.541 239.043 105.066Q239.632 103.59 240.257 102.129Q240.882 100.669 241.543 99.2238Q242.205 97.779 242.901 96.351Q243.598 94.923 244.33 93.5127Q245.062 92.1025 245.828 90.7107Q246.594 89.319 247.395 87.9467Q248.196 86.5744 249.03 85.2223Q249.865 83.8702 250.732 82.5392Q251.6 81.2082 252.5 79.8991Q253.401 78.59 254.333 77.3036Q255.266 76.0172 256.23 74.7543Q257.194 73.4914 258.189 72.2527Q259.184 71.014 260.209 69.8004C285.847 39.6126 318.915 25.7705 357.677 22.6319Z"/>
	<path fill="#AFA7A6" d="M114.44 26.0344C120.481 25.915 126.535 26.0268 132.577 26.0604L132.689 220.472C132.743 236.322 133.296 256.304 145.335 268.18C152.804 275.548 163.343 279.255 173.714 279.159Q174.706 279.156 175.697 279.103Q176.688 279.051 177.675 278.949Q178.662 278.847 179.643 278.696Q180.623 278.545 181.595 278.345Q182.567 278.145 183.528 277.896Q184.489 277.648 185.436 277.352Q186.383 277.056 187.314 276.714Q188.245 276.371 189.158 275.982Q190.071 275.593 190.964 275.159Q191.856 274.725 192.726 274.247Q193.595 273.769 194.44 273.248Q195.284 272.727 196.102 272.165Q196.92 271.602 197.708 271Q198.497 270.397 199.254 269.756Q200.011 269.115 200.736 268.437Q201.46 267.759 202.15 267.045C208.36 260.712 211.412 253.494 212.882 244.822C214.812 233.438 214.364 221.734 214.365 210.23L214.373 168.434L214.311 26.0659L219.49 26.0494L219.499 32.0964L219.372 176.303L219.385 215.139C219.411 225.005 220.034 235.33 218.378 245.084C216.694 255.006 212.651 264.153 205.637 271.459C196.654 280.814 184.527 284.701 171.824 284.952C156.086 285.263 139.646 281.366 128.044 270.155C121.729 264.053 117.694 256.819 116.045 248.187C113.704 235.933 115.317 218.026 114.96 204.977Q114.328 176.278 114.509 147.572L114.414 64.8175C114.414 51.9012 114.68 38.9464 114.44 26.0344Z"/>
	<path fill="#AFA7A6" d="M714.034 26.2088C720.13 26.0427 728.053 25.0764 733.719 27.4938C737.063 28.9203 739.26 31.729 740.514 35.0721C742.412 40.136 743.204 46.195 744.34 51.4956C748.312 70.0267 751.007 88.7907 754.488 107.413L774.238 212.843C777.329 229.422 780.085 246.105 783.4 262.636C784.476 267.998 786.363 273.157 787.451 278.49C787.685 279.64 787.781 280.699 787.287 281.798Q776.982 281.692 766.678 281.874C766.838 280.99 766.866 280.162 766.8 279.266C766.234 271.46 762.56 239.463 757.818 235.35C753.393 234.037 747.673 234.537 743.067 234.546C734.773 234.989 726.3 234.693 717.989 234.704C707.054 234.719 696.076 234.933 685.147 234.616C685.728 235.642 685.685 236.623 685.592 237.76C685.217 242.344 684.136 246.935 683.398 251.475C682.128 259.282 681.192 267.619 678.881 275.19C678.252 277.253 677.107 280.772 675.339 282.036C674.512 282.627 674.224 282.619 673.301 282.423C671.449 279.765 677.135 256.688 677.897 252.082Q686.67 199.852 696.237 147.762Q701.613 118.643 706.538 89.4449C709.641 71.4712 715.972 44.5673 713.419 26.9975L714.034 26.2088ZM721.335 36.4535C721.524 37.2052 721.509 37.7725 721.379 38.5238L702.616 141.603C697.979 167.639 693.96 193.839 688.966 219.804C688.455 222.461 688.104 225.834 686.782 228.199C698.943 227.751 711.193 228.041 723.364 228.05L746.247 227.976C749.599 227.958 754.281 227.413 757.528 228.145C758.612 225.394 756.961 219.261 756.445 216.179C754.501 204.59 751.976 193.119 749.871 181.561L731.797 83.0771C729.999 73.4132 728.055 63.7626 726.335 54.0864C725.437 49.0354 725.276 42.5216 723.267 37.8407C723.094 37.4365 722.894 37.0537 722.677 36.6718C722.229 36.5679 721.798 36.4485 721.335 36.4535Z"/>
	<path fill="#AFA7A6" d="M524.445 25.8147C546.601 24.6994 570.194 26.5492 591.377 33.326C621.254 42.8838 647.676 63.7366 662.105 91.8527C678.874 124.529 680.243 165.358 668.973 200.019C663.728 216.15 654.89 230.136 643.527 242.619C640.836 245.574 637.733 249.203 634.124 251.034C634.04 251.261 633.985 251.433 633.819 251.615C630.173 255.625 623.542 259.411 618.852 262.253C588.574 280.599 555.006 283.589 520.344 282.462C520.339 282.376 520.337 282.291 520.329 282.206C520.127 280.042 518.319 278.342 516.72 277.088C517.628 275.556 517.546 273.191 517.633 271.432C518.114 261.624 517.4 251.514 517.403 241.658L517.456 170.985L517.467 87.9493C517.462 72.719 517.877 57.304 517.241 42.0913C517.082 38.3114 517.099 28.8689 514.534 26.0254C517.817 26.0463 521.183 26.21 524.445 25.8147ZM535.23 31.7261C536.461 37.8173 535.638 47.5664 535.628 54.0202L535.56 100.859L535.735 273.681C535.73 274.492 535.605 275.356 535.378 276.136C568.139 275.746 597.015 268.506 620.668 244.242C621.341 243.552 622.37 242.719 622.658 241.791C626.22 239.646 629.153 235.078 631.492 231.703C641.81 216.818 649.861 200.435 654.217 182.795C662.418 149.577 655.405 114.946 637.818 85.9294C621.949 59.7485 597.977 42.2408 568.251 34.9931C557.232 32.3064 546.53 31.6436 535.23 31.7261Z"/>
</svg>
