<?xml version="1.0" encoding="utf-8" ?>
<svg xmlns="http://www.w3.org/2000/svg" xmlns:xlink="http://www.w3.org/1999/xlink" width="251" height="251">
	<path fill="#FEE2B2" d="M121.099 83.834C123.012 79.3028 125.754 75.2193 127.867 70.8016C128.317 74.2285 128.543 77.5353 128.506 80.9871C128.447 80.9623 128.387 80.9395 128.33 80.9127C127.608 80.5778 127.507 79.8646 126.64 79.5647C124.444 80.3557 123.244 82.963 121.099 83.834Z"/>
	<path fill="#D6D5D4" d="M88.1966 10.6517C91.221 11.1033 94.6017 12.5695 97.5375 13.5177L116.745 19.6103C120.572 20.8543 124.537 22.525 128.467 23.2871C128.454 32.2796 128.913 41.4265 128.124 50.382L127.73 50.4391C125.516 47.9901 122.842 45.9466 120.489 43.6229C116.202 39.3908 111.777 35.2356 107.559 30.9471C104.639 27.9773 101.889 24.8306 98.977 21.8457C95.4102 18.1901 91.4144 14.5987 88.1966 10.6517Z"/>
	<path fill="#AEA6A4" d="M173.664 10.2497L174.015 10.2967L174.08 10.6648C172.401 12.9117 170.167 14.8618 168.268 16.9374Q162.021 23.8394 155.282 30.2615C148.084 37.1054 140.407 43.796 134.22 51.5869C132.717 48.6424 133.599 28.2642 133.348 23.5705C136.478 22.3541 139.783 21.5453 142.985 20.526C148.162 18.8779 153.304 17.0914 158.506 15.5271C163.679 13.9717 168.763 12.5843 173.664 10.2497Z"/>
	<defs>
		<linearGradient id="gradient_0" gradientUnits="userSpaceOnUse" x1="89.930649" y1="228.87979" x2="115.69789" y2="199.1329">
			<stop offset="0" stop-color="#FFDCA9"/>
			<stop offset="1" stop-color="#FFF6DC"/>
		</linearGradient>
	</defs>
	<path fill="url(#gradient_0)" d="M103.625 188.174L104.162 188.26C105.501 189.736 105.485 228.039 105.459 232.199C105.436 235.843 105.152 239.482 105.241 243.125C101.363 239.217 97.981 234.615 94.5168 230.336C90.0258 224.661 82.4199 217.442 79.3694 211.151C82.7064 206.613 87.7903 202.981 91.9227 199.174C95.8741 195.533 99.513 191.654 103.625 188.174Z"/>
	<path fill="#AEA6A4" d="M156.854 185.109C158.701 186.277 162.02 190.134 163.708 191.81Q173.603 201.52 183.276 211.451C178.228 217.128 173.534 223.269 168.708 229.142C164.541 233.985 160.311 238.874 156.732 244.175C157.336 230.777 156.77 216.909 156.62 203.476C156.552 197.371 156.784 191.219 156.854 185.109Z"/>
	<path fill="#D6D5D4" d="M211.257 110.921L211.487 111.031C211.971 112.838 194.669 171.084 192.732 177.324C191.588 173.744 189.582 170.291 187.902 166.927C184.288 159.7 180.371 152.523 177.223 145.081C179.806 141.74 183.619 138.545 186.65 135.528L203.447 118.617C206.028 116.028 208.773 113.606 211.257 110.921Z"/>
	<path fill="#AEA6A4" d="M50.2495 110.375C50.7124 110.514 72.6156 132.518 74.9028 134.813C77.8942 137.814 81.4629 142.164 85.0009 144.413C83.8828 149.624 77.2678 161.166 74.6011 166.589C72.5931 170.353 70.7706 174.094 69.0883 178.019C67.4743 171.279 65.3812 164.666 63.4987 157.997Q59.8783 144.715 56.0867 131.481L52.3645 118.706C51.5831 116.008 50.595 113.164 50.2495 110.375Z"/>
	<defs>
		<linearGradient id="gradient_1" gradientUnits="userSpaceOnUse" x1="166.75859" y1="189.59683" x2="188.52411" y2="164.56218">
			<stop offset="0" stop-color="#FFDEAB"/>
			<stop offset="1" stop-color="#FFF4DB"/>
		</linearGradient>
	</defs>
	<path fill="url(#gradient_1)" d="M173.778 150.678C174.701 151.309 175.523 154.64 176.108 155.847C180.3 164.5 184.973 172.953 189.211 181.594C189.759 182.712 190.347 183.93 190.422 185.187C190.703 189.892 186.411 201.144 184.73 206.028C182.059 203.659 179.525 201.106 176.95 198.631L166.025 187.44C163.315 184.699 160.501 182.047 157.928 179.175C156.127 177.164 152.628 173.174 152.97 170.267C153.271 167.71 164.595 157.362 167.087 155.391C169.234 153.693 171.666 152.429 173.778 150.678Z"/>
	<path fill="#D6D5D4" d="M89.0155 149.104C96.1585 155.645 102.296 163.624 109.88 169.651C104.729 180.955 93.4719 190.414 84.676 199.034Q80.7928 202.707 77.2336 206.694C76.1174 200.436 73.397 194.481 72.1563 188.246C71.8931 186.924 71.6153 185.546 71.9611 184.215C73.6988 177.527 78.5442 169.867 81.6704 163.546C84.0179 158.8 86.0778 153.478 89.0155 149.104Z"/>
	<path fill="#FEE2B2" d="M181.584 10.621C184.222 12.377 189.822 18.9534 192.404 21.5211C204.024 33.0778 215.868 44.492 227.179 56.349C226.075 61.8574 224.374 67.1427 222.849 72.5394C221.913 75.8491 221.172 79.6811 219.696 82.7916C219.454 83.3005 219.426 83.3255 218.897 83.51C217.591 83.2541 216.279 82.5592 215.054 82.042C215.879 82.165 216.841 82.4055 217.666 82.3626C218.18 82.3359 218.414 82.3154 218.758 81.9184C217.829 79.6692 211.556 79.2028 209.277 75.1579C207.61 72.1997 206.858 68.5519 205.335 65.4454C203.507 61.7166 201.157 58.2649 199.122 54.65C197.077 51.0179 195.306 47.2382 193.265 43.6034C189.905 37.6218 185.353 32.5398 181.95 26.5561C180.994 24.8765 180.084 23.1409 179.341 21.3559C178.817 20.0979 178.347 17.8811 177.6 16.831C177.451 16.6215 176.918 16.3241 176.692 16.1349C177.798 14.1662 180.037 12.3157 181.584 10.621Z"/>
	<defs>
		<linearGradient id="gradient_2" gradientUnits="userSpaceOnUse" x1="111.08461" y1="164.02757" x2="109.69775" y2="80.274086">
			<stop offset="0" stop-color="#FFE5B9"/>
			<stop offset="1" stop-color="#FFFFF5"/>
		</linearGradient>
	</defs>
	<path fill="url(#gradient_2)" d="M121.099 83.834C123.244 82.963 124.444 80.3557 126.64 79.5647C127.507 79.8646 127.608 80.5778 128.33 80.9127C128.387 80.9395 128.447 80.9623 128.506 80.9871C128.66 88.2205 128.01 95.4672 128.027 102.718C128.041 109.397 128.311 116.072 128.416 122.75C128.487 127.196 128.907 131.996 127.882 136.353C127.457 138.159 126.775 139.951 125.982 141.627C124.295 145.188 122.007 148.491 120.115 151.948C117.655 156.441 115.721 161.331 112.614 165.425C105.804 158.327 98.5492 151.662 91.8523 144.451C97.718 131.465 104.584 119.005 110.784 106.171C113.136 101.304 115.567 96.4424 117.795 91.5188C118.92 89.035 119.741 86.1826 121.099 83.834Z"/>
	<path fill="#D6D5D4" d="M133.459 70.4038C134.837 71.5292 137.692 77.7645 138.716 79.7631C141.041 84.2992 143.04 88.9952 145.288 93.5697L159.372 121.649L166.09 134.987C167.587 137.958 169.473 141.07 170.338 144.29C167.772 148.126 163.653 151.272 160.325 154.468Q154.77 159.738 149.594 165.379C147.123 161.243 144.876 157.013 142.475 152.841C139.77 148.142 136.336 143.221 134.69 138.023C132.713 131.778 133.521 115.773 133.526 108.477Q133.612 89.4402 133.459 70.4038Z"/>
	<path fill="#AEA6A4" d="M135.114 60.6321Q163.259 70.3793 191.538 79.728Q200.516 82.8296 209.537 85.8009C212.267 86.695 215.37 88.0499 218.234 88.3236C216.433 98.3477 213.504 101.381 206.532 108.298L196.184 118.552C188.916 125.842 181.533 133.013 174.55 140.581C172.907 136.661 170.862 132.822 168.973 129.012L159.361 109.738L135.114 60.6321Z"/>
	<path fill="#D6D5D4" d="M125.98 61.0389L126.53 61.0476C126.603 61.9107 122.473 70.7636 121.792 72.1843C116.229 83.7822 110.004 95.0576 104.257 106.563Q100.321 114.331 96.483 122.147C93.548 128.233 90.749 134.408 87.5318 140.354C85.4396 137.732 82.7002 135.353 80.3203 132.979L66.2804 118.989C61.5144 114.068 49.7388 103.851 46.9898 98.2932C45.4633 95.2069 44.8304 91.8655 44.1232 88.5248C52.6073 85.4646 61.2276 82.7672 69.7824 79.9152L100.751 69.5114C109.189 66.7374 117.636 64.0988 125.98 61.0389Z"/>
	<path fill="#AEA6A4" d="M80.3483 10.9242C81.4639 11.152 112.386 42.5181 115.528 45.6548C118.946 49.0666 122.379 53.1971 126.264 56.0491C120.28 57.591 114.439 59.7323 108.574 61.6666L70.5879 74.4792C61.296 77.6489 51.8344 80.4992 42.7337 84.1869C41.4099 81.3708 40.7297 77.9462 39.878 74.9484Q37.2387 65.6729 34.7315 56.3608L80.3483 10.9242Z"/>
</svg>
